<svg width="41" height="42" viewBox="0 0 41 42" fill="none" xmlns="http://www.w3.org/2000/svg">
<path d="M17.4541 0.955078C26.8176 0.955078 34.408 8.54564 34.4082 17.9092C34.4082 27.2729 26.8177 34.8643 17.4541 34.8643C8.09059 34.8641 0.5 27.2728 0.5 17.9092C0.500236 8.54572 8.09074 0.955207 17.4541 0.955078Z" fill="#F1F5F9" stroke="#262626"/>
<path d="M17.7197 1.22754C27.0832 1.22754 34.6736 8.8181 34.6738 18.1816C34.6738 27.5454 27.0833 35.1367 17.7197 35.1367C8.35622 35.1366 0.765625 27.5453 0.765625 18.1816C0.765861 8.81818 8.35636 1.22767 17.7197 1.22754Z" stroke="#A5B4FC"/>
<path d="M17.7656 35.7275C27.4306 35.7275 35.2656 27.8925 35.2656 18.2275C35.2656 8.56256 27.4306 0.727539 17.7656 0.727539C8.10064 0.727539 0.265625 8.56256 0.265625 18.2275C0.265625 27.8925 8.10064 35.7275 17.7656 35.7275Z" fill="#3E73C4"/>
<path d="M22.1651 20.5504C22.1651 18.2273 20.7651 17.4311 17.9651 17.0986C15.9657 16.8328 15.5665 16.3023 15.5665 15.3726C15.5665 14.4429 16.2337 13.8458 17.5659 13.8458C18.7657 13.8458 19.4329 14.2439 19.7654 15.2403C19.8 15.3366 19.8634 15.4201 19.9469 15.4793C20.0304 15.5386 20.13 15.5708 20.2324 15.5717H21.2988C21.3604 15.5733 21.4217 15.5625 21.479 15.5397C21.5362 15.517 21.5883 15.4828 21.6319 15.4393C21.6756 15.3959 21.71 15.344 21.733 15.2868C21.756 15.2297 21.7672 15.1685 21.7659 15.1069V15.0412C21.6355 14.3203 21.2708 13.6627 20.7283 13.1704C20.1857 12.6781 19.4958 12.3788 18.7657 12.3189V10.7264C18.7657 10.4606 18.5655 10.2615 18.233 10.1948H17.2323C16.9665 10.1948 16.7663 10.3939 16.6996 10.7264V12.2533C14.6991 12.5179 13.4337 13.8458 13.4337 15.5061C13.4337 17.6958 14.7659 18.5587 17.5659 18.8912C19.4329 19.2226 20.0323 19.6219 20.0323 20.6839C20.0323 21.7448 19.0993 22.4754 17.8327 22.4754C16.0991 22.4754 15.4998 21.7459 15.2996 20.7495C15.234 20.4848 15.0327 20.3514 14.8326 20.3514H13.6994C13.6379 20.3499 13.5768 20.3609 13.5196 20.3837C13.4625 20.4065 13.4106 20.4407 13.367 20.4841C13.3235 20.5276 13.2892 20.5794 13.2662 20.6365C13.2433 20.6936 13.2322 20.7547 13.2335 20.8162V20.8819C13.4993 22.5422 14.5668 23.7365 16.7663 24.069V25.6626C16.7663 25.9273 16.9665 26.1275 17.299 26.1931H18.2998C18.5655 26.1931 18.7657 25.994 18.8324 25.6626V24.0679C20.8329 23.7365 22.1651 22.342 22.1651 20.5494V20.5504Z" fill="white"/>
<path d="M14.3665 27.5211C9.16678 25.6618 6.50022 19.8868 8.43397 14.7757C9.43366 11.9866 11.6332 9.86363 14.3665 8.86723C14.6333 8.73488 14.7657 8.53582 14.7657 8.20332V7.27363C14.7657 7.00895 14.6333 6.80988 14.3665 6.74316C14.2998 6.74316 14.1663 6.74316 14.0996 6.80879C12.5994 7.27727 11.2068 8.03787 10.0018 9.04679C8.79678 10.0557 7.80326 11.293 7.07843 12.6875C6.35359 14.082 5.91175 15.6061 5.77836 17.172C5.64496 18.7379 5.82264 20.3148 6.30116 21.8118C7.49991 25.5305 10.3666 28.3852 14.0996 29.5796C14.3665 29.7119 14.6333 29.5796 14.699 29.3138C14.7657 29.2482 14.7657 29.1804 14.7657 29.048V28.1183C14.7657 27.9193 14.5666 27.6546 14.3665 27.5211ZM21.4321 6.80988C21.1652 6.67645 20.8983 6.80988 20.8327 7.07457C20.766 7.14129 20.766 7.20801 20.766 7.34035V8.27004C20.766 8.53582 20.9651 8.80051 21.1652 8.93395C26.3649 10.7933 29.0315 16.5683 27.0977 21.6794C26.098 24.4685 23.8985 26.5914 21.1652 27.5879C20.8983 27.7202 20.766 27.9193 20.766 28.2518V29.1814C20.766 29.4461 20.8983 29.6452 21.1652 29.7119C21.2319 29.7119 21.3654 29.7119 21.4321 29.6463C22.9323 29.1778 24.3249 28.4172 25.5299 27.4083C26.7349 26.3994 27.7284 25.162 28.4533 23.7676C29.1781 22.3731 29.6199 20.849 29.7533 19.2831C29.8867 17.7172 29.7091 16.1403 29.2305 14.6433C28.0318 10.8589 25.0983 8.00426 21.4321 6.80988Z" fill="white"/>
<circle cx="32.2656" cy="32.7275" r="8" fill="white" stroke="#A5B4FC"/>
<g clip-path="url(#clip0_43_7483)">
<path d="M34.7591 31.089C34.5839 30.989 34.3588 30.989 34.1586 31.089L32.7576 31.9146L31.807 32.44L30.431 33.2656C30.2559 33.3657 30.0307 33.3657 29.8306 33.2656L28.7548 32.6151C28.5797 32.515 28.4546 32.3149 28.4546 32.0897V30.8389C28.4546 30.6387 28.5547 30.4386 28.7548 30.3135L29.8306 29.688C30.0057 29.588 30.2308 29.588 30.431 29.688L31.5067 30.3385C31.6819 30.4386 31.807 30.6387 31.807 30.8639V31.6895L32.7576 31.1391V30.2885C32.7576 30.0883 32.6576 29.8882 32.4574 29.7631L30.456 28.5873C30.2809 28.4872 30.0557 28.4872 29.8556 28.5873L27.8041 29.7881C27.604 29.8882 27.5039 30.0883 27.5039 30.2885V32.6401C27.5039 32.8403 27.604 33.0404 27.8041 33.1655L29.8306 34.3413C30.0057 34.4414 30.2308 34.4414 30.431 34.3413L31.807 33.5408L32.7576 32.9904L34.1336 32.1898C34.3087 32.0897 34.5339 32.0897 34.734 32.1898L35.8098 32.8153C35.9849 32.9153 36.11 33.1155 36.11 33.3406V34.5915C36.11 34.7917 36.0099 34.9918 35.8098 35.1169L34.7591 35.7423C34.5839 35.8424 34.3588 35.8424 34.1586 35.7423L33.0829 35.1169C32.9077 35.0168 32.7827 34.8167 32.7827 34.5915V33.791L31.832 34.3413V35.1669C31.832 35.3671 31.9321 35.5672 32.1322 35.6923L34.1586 36.8681C34.3338 36.9682 34.5589 36.9682 34.7591 36.8681L36.7855 35.6923C36.9606 35.5922 37.0857 35.3921 37.0857 35.1669V32.7902C37.0857 32.5901 36.9856 32.39 36.7855 32.2649L34.7591 31.089Z" fill="#8247E5"/>
</g>
<defs>
<clipPath id="clip0_43_7483">
<rect width="9.60682" height="8.38095" fill="white" transform="translate(27.5039 28.5371)"/>
</clipPath>
</defs>
</svg>
