<svg width="32" height="32" viewBox="0 0 32 32" fill="none" xmlns="http://www.w3.org/2000/svg">
<path d="M16 0C24.8366 0 32 7.16344 32 16C32 24.8366 24.8366 32 16 32C7.16344 32 0 24.8366 0 16C0 7.16344 7.16344 0 16 0ZM15.9971 4C15.6798 4.00004 15.3595 4.08019 15.0742 4.24414L6.12402 9.33301C5.84443 9.49035 5.61155 9.71937 5.44922 9.99609C5.28691 10.2729 5.20098 10.5883 5.2002 10.9092V21.0889C5.2002 21.7382 5.55202 22.3401 6.12402 22.6641L7.72949 23.5771V23.5791L9.55273 24.6133L10.3438 25.0635L11.0098 25.4443V25.4434L15.0762 27.7559C15.3581 27.915 15.6763 27.999 16 27.999C16.3237 27.999 16.6419 27.915 16.9238 27.7559L25.876 22.665C26.1556 22.5076 26.3885 22.2788 26.5508 22.002C26.7131 21.7251 26.799 21.4098 26.7998 21.0889V10.9092C26.799 10.5883 26.7131 10.2729 26.5508 9.99609C26.3885 9.71937 26.1556 9.49035 25.876 9.33301L16.9209 4.24414C16.6394 4.08411 16.3209 3.99978 15.9971 4ZM15.9971 5.48633C16.0555 5.48851 16.113 5.50361 16.165 5.53027L25.1191 10.6211C25.1693 10.6498 25.2108 10.6915 25.2402 10.7412C25.2696 10.7911 25.2863 10.8483 25.2871 10.9062V21.0869C25.287 21.2054 25.2229 21.3134 25.1191 21.3721L23.7559 22.1465L20.1689 12.4658C20.1545 12.427 20.1287 12.3928 20.0947 12.3691C20.0609 12.3457 20.0207 12.333 19.9795 12.333C19.9381 12.333 19.8972 12.3455 19.8633 12.3691C19.8294 12.3928 19.8034 12.4271 19.7891 12.4658L18.6094 15.6523C18.5774 15.7406 18.5773 15.8376 18.6094 15.9258L21.4082 23.4814L20.4746 24.0127L18.1836 17.8242C18.1692 17.7854 18.1433 17.7521 18.1094 17.7285C18.0755 17.7049 18.0354 17.6914 17.9941 17.6914C17.9528 17.6914 17.9119 17.7049 17.8779 17.7285C17.8442 17.7521 17.818 17.7856 17.8037 17.8242L16.624 21.0107C16.5919 21.099 16.5919 21.1959 16.624 21.2842L18.1279 25.3467L16.165 26.4639C16.1138 26.4926 16.0558 26.5077 15.9971 26.5068C15.9393 26.5048 15.8827 26.4899 15.8311 26.4639L13.8838 25.3574L19.4053 10.4482C19.416 10.418 19.4195 10.3853 19.415 10.3535C19.4106 10.3218 19.3984 10.2917 19.3799 10.2656C19.3614 10.2395 19.337 10.2178 19.3086 10.2031C19.2801 10.1885 19.2479 10.1796 19.2158 10.1797H16.9453C16.863 10.1791 16.7825 10.2042 16.7148 10.251C16.6471 10.298 16.5947 10.365 16.5664 10.4424L11.7666 23.4004L10.9014 22.6924L10.6035 23.4941L15.4346 10.4482C15.4453 10.418 15.4488 10.3853 15.4443 10.3535C15.4398 10.3217 15.4279 10.2908 15.4092 10.2646C15.3905 10.2386 15.3655 10.2177 15.3369 10.2031C15.3083 10.1886 15.2763 10.1794 15.2441 10.1797H12.9746C12.892 10.1788 12.8112 10.204 12.7432 10.251C12.6752 10.298 12.6231 10.3648 12.5947 10.4424L8.25488 22.1592L6.87695 21.377C6.8266 21.3481 6.78427 21.3069 6.75488 21.2568C6.72543 21.2066 6.7095 21.1491 6.70898 21.0908V10.9092C6.70904 10.7907 6.77326 10.6831 6.87695 10.623L15.8311 5.53223C15.8818 5.50341 15.9387 5.48718 15.9971 5.48633Z" fill="#A5B4FC"/>
</svg>
