<svg width="64" height="64" viewBox="0 0 64 64" fill="none" xmlns="http://www.w3.org/2000/svg">
<path d="M32 0C49.6731 0 64 14.3269 64 32C64 49.6731 49.6731 64 32 64C14.3269 64 0 49.6731 0 32C0 14.3269 14.3269 0 32 0ZM28.0215 12.917L17.3545 19.083L13.4404 21.333V42.667L17.3545 44.917L28.1191 51.083L32.0342 53.333L35.9482 51.083L46.5176 44.917L50.4316 42.667V21.333L46.5176 19.083L35.8506 12.917L31.9355 10.667L28.0215 12.917ZM42.6025 25.835V38.165L31.9355 44.3311L21.2695 38.165V25.835L31.9355 19.6689L42.6025 25.835Z" fill="#335DD2"/>
</svg>
