<svg width="40" height="40" viewBox="0 0 40 40" fill="none" xmlns="http://www.w3.org/2000/svg">
<path d="M17.4541 0.5C26.8176 0.5 34.408 8.09056 34.4082 17.4541C34.4082 26.8178 26.8177 34.4092 17.4541 34.4092C8.09059 34.4091 0.5 26.8178 0.5 17.4541C0.500236 8.09064 8.09074 0.500129 17.4541 0.5Z" stroke="#A5B4FC"/>
<circle cx="31" cy="31" r="7.5" fill="#F1F5F9" stroke="#262626"/>
<path d="M17.5 0C27.165 0 35 7.83502 35 17.5C35 27.165 27.165 35 17.5 35C7.83502 35 0 27.165 0 17.5C0 7.83502 7.83502 0 17.5 0ZM15.3252 7.06348L9.49121 10.4355L7.35059 11.666V23.333L9.49121 24.5635L15.3779 27.9355L17.5195 29.166L19.6602 27.9355L25.4395 24.5635L27.5811 23.333V11.666L25.4395 10.4355L19.6064 7.06348L17.4658 5.83301L15.3252 7.06348ZM23.2988 14.1279V20.8711L17.4658 24.2432L11.6328 20.8711V14.1279L17.4658 10.7559L23.2988 14.1279Z" fill="#335DD2"/>
<circle cx="31" cy="31" r="8" fill="white" stroke="#A5B4FC"/>
<g clip-path="url(#clip0_43_7314)">
<path d="M33.4934 29.3615C33.3183 29.2614 33.0931 29.2614 32.893 29.3615L31.492 30.1871L30.5413 30.7125L29.1654 31.538C28.9902 31.6381 28.7651 31.6381 28.5649 31.538L27.4892 30.8876C27.314 30.7875 27.189 30.5874 27.189 30.3622V29.1113C27.189 28.9112 27.289 28.711 27.4892 28.5859L28.5649 27.9605C28.7401 27.8604 28.9652 27.8604 29.1654 27.9605L30.2411 28.611C30.4162 28.711 30.5413 28.9112 30.5413 29.1363V29.9619L31.492 29.4115V28.5609C31.492 28.3608 31.3919 28.1606 31.1918 28.0356L29.1904 26.8597C29.0153 26.7597 28.7901 26.7597 28.59 26.8597L26.5385 28.0606C26.3384 28.1606 26.2383 28.3608 26.2383 28.5609V30.9126C26.2383 31.1127 26.3384 31.3129 26.5385 31.438L28.5649 32.6138C28.7401 32.7139 28.9652 32.7139 29.1654 32.6138L30.5413 31.8132L31.492 31.2628L32.868 30.4623C33.0431 30.3622 33.2683 30.3622 33.4684 30.4623L34.5442 31.0877C34.7193 31.1878 34.8444 31.3879 34.8444 31.6131V32.864C34.8444 33.0641 34.7443 33.2643 34.5442 33.3894L33.4934 34.0148C33.3183 34.1149 33.0931 34.1149 32.893 34.0148L31.8172 33.3894C31.6421 33.2893 31.517 33.0891 31.517 32.864V32.0634L30.5664 32.6138V33.4394C30.5664 33.6395 30.6664 33.8397 30.8666 33.9648L32.893 35.1406C33.0681 35.2407 33.2933 35.2407 33.4934 35.1406L35.5199 33.9648C35.695 33.8647 35.8201 33.6646 35.8201 33.4394V31.0627C35.8201 30.8626 35.72 30.6624 35.5199 30.5373L33.4934 29.3615Z" fill="#8247E5"/>
</g>
<defs>
<clipPath id="clip0_43_7314">
<rect width="9.60682" height="8.38095" fill="white" transform="translate(26.2383 26.8096)"/>
</clipPath>
</defs>
</svg>
