<svg width="42" height="42" viewBox="0 0 42 42" fill="none" xmlns="http://www.w3.org/2000/svg">
<circle cx="21" cy="21" r="20" fill="white" stroke="#A5B4FC"/>
<g clip-path="url(#clip0_29_941)">
<path d="M27.2336 16.9035C26.7958 16.6533 26.2329 16.6533 25.7325 16.9035L22.23 18.9675L19.8533 20.2809L16.4134 22.3449C15.9756 22.595 15.4127 22.595 14.9123 22.3449L12.2229 20.7187C11.7851 20.4685 11.4724 19.9682 11.4724 19.4053V16.2781C11.4724 15.7777 11.7226 15.2773 12.2229 14.9646L14.9123 13.401C15.3501 13.1508 15.913 13.1508 16.4134 13.401L19.1028 15.0272C19.5406 15.2773 19.8533 15.7777 19.8533 16.3406V18.4046L22.23 17.0286V14.9021C22.23 14.4017 21.9799 13.9014 21.4795 13.5886L16.4759 10.6491C16.0381 10.3989 15.4752 10.3989 14.9749 10.6491L9.84624 13.6512C9.34588 13.9014 9.0957 14.4017 9.0957 14.9021V20.7813C9.0957 21.2816 9.34588 21.782 9.84624 22.0947L14.9123 25.0343C15.3501 25.2845 15.913 25.2845 16.4134 25.0343L19.8533 23.0329L22.23 21.6569L25.67 19.6555C26.1078 19.4053 26.6707 19.4053 27.171 19.6555L29.8604 21.2191C30.2983 21.4692 30.611 21.9696 30.611 22.5325V25.6597C30.611 26.1601 30.3608 26.6604 29.8604 26.9732L27.2336 28.5368C26.7958 28.7869 26.2329 28.7869 25.7325 28.5368L23.0431 26.9732C22.6053 26.723 22.2926 26.2226 22.2926 25.6597V23.6583L19.9159 25.0343V27.0982C19.9159 27.5986 20.1661 28.0989 20.6664 28.4117L25.7325 31.3513C26.1703 31.6014 26.7332 31.6014 27.2336 31.3513L32.2997 28.4117C32.7375 28.1615 33.0502 27.6611 33.0502 27.0982V21.1565C33.0502 20.6562 32.8 20.1558 32.2997 19.8431L27.2336 16.9035Z" fill="#8247E5"/>
</g>
<defs>
<clipPath id="clip0_29_941">
<rect width="24.0171" height="20.9524" fill="white" transform="translate(9.0957 10.5239)"/>
</clipPath>
</defs>
</svg>
