<svg width="39" height="39" viewBox="0 0 39 39" fill="none" xmlns="http://www.w3.org/2000/svg">
<circle cx="17.5" cy="17.5" r="17.5" fill="white"/>
<g clip-path="url(#clip0_29_964)">
<path d="M22.9546 13.9156C22.5715 13.6967 22.079 13.6967 21.6412 13.9156L18.5765 15.7216L16.4969 16.8708L13.487 18.6768C13.1039 18.8957 12.6113 18.8957 12.1735 18.6768L9.8203 17.2539C9.43722 17.035 9.16359 16.5972 9.16359 16.1047V13.3684C9.16359 12.9305 9.38249 12.4927 9.8203 12.2191L12.1735 10.8509C12.5566 10.632 13.0492 10.632 13.487 10.8509L15.8402 12.2738C16.2233 12.4927 16.4969 12.9305 16.4969 13.4231V15.2291L18.5765 14.0251V12.1644C18.5765 11.7266 18.3576 11.2888 17.9198 11.0151L13.5417 8.44299C13.1586 8.22408 12.6661 8.22408 12.2283 8.44299L7.7407 11.0699C7.30289 11.2888 7.08398 11.7266 7.08398 12.1644V17.3087C7.08398 17.7465 7.30289 18.1843 7.7407 18.4579L12.1735 21.0301C12.5566 21.249 13.0492 21.249 13.487 21.0301L16.4969 19.2788L18.5765 18.0748L21.5865 16.3236C21.9696 16.1047 22.4621 16.1047 22.8999 16.3236L25.2531 17.6917C25.6362 17.9106 25.9099 18.3485 25.9099 18.841V21.5773C25.9099 22.0151 25.6909 22.4529 25.2531 22.7266L22.9546 24.0947C22.5715 24.3136 22.079 24.3136 21.6412 24.0947L19.288 22.7266C18.9049 22.5077 18.6312 22.0699 18.6312 21.5773V19.8261L16.5516 21.0301V22.836C16.5516 23.2738 16.7706 23.7116 17.2084 23.9853L21.6412 26.5574C22.0243 26.7763 22.5168 26.7763 22.9546 26.5574L27.3875 23.9853C27.7705 23.7664 28.0442 23.3286 28.0442 22.836V17.637C28.0442 17.1992 27.8253 16.7614 27.3875 16.4878L22.9546 13.9156Z" fill="#8247E5"/>
</g>
<path d="M17.4541 0.5C26.8176 0.5 34.408 8.09056 34.4082 17.4541C34.4082 26.8178 26.8177 34.4092 17.4541 34.4092C8.09059 34.4091 0.5 26.8178 0.5 17.4541C0.500236 8.09064 8.09074 0.500129 17.4541 0.5Z" stroke="#A5B4FC"/>
<circle cx="31" cy="31" r="7.5" fill="#F1F5F9" stroke="#262626"/>
<path d="M31 23C35.4183 23 39 26.5817 39 31C39 35.4183 35.4183 39 31 39C26.5817 39 23 35.4183 23 31C23 26.5817 26.5817 23 31 23ZM30.0059 26.2295L27.3389 27.7705L26.3604 28.333V33.667L27.3389 34.2295L30.0303 35.7705L31.0088 36.333L31.9873 35.7705L34.6299 34.2295L35.6084 33.667V28.333L34.6299 27.7705L31.9629 26.2295L30.9844 25.667L30.0059 26.2295ZM33.6504 29.459V32.541L30.9844 34.083L28.3174 32.541V29.459L30.9844 27.917L33.6504 29.459Z" fill="#335DD2"/>
<defs>
<clipPath id="clip0_29_964">
<rect width="21.0149" height="18.3333" fill="white" transform="translate(7.08398 8.3335)"/>
</clipPath>
</defs>
</svg>
