<svg width="200" height="200" viewBox="0 0 200 200" fill="none" xmlns="http://www.w3.org/2000/svg">
<g clip-path="url(#clip0_43_7307)">
<path d="M100 200C155.228 200 200 155.228 200 100C200 44.7715 155.228 0 100 0C44.7715 0 0 44.7715 0 100C0 155.228 44.7715 200 100 200Z" fill="#3E73C4"/>
<path d="M125.137 113.275C125.137 100 117.137 95.4501 101.137 93.5501C89.7118 92.0313 87.4305 89.0001 87.4305 83.6876C87.4305 78.3751 91.243 74.9626 98.8555 74.9626C105.712 74.9626 109.524 77.2376 111.424 82.9313C111.622 83.4819 111.984 83.9586 112.461 84.2972C112.938 84.6358 113.508 84.82 114.093 84.8251H120.187C120.539 84.8345 120.889 84.7723 121.216 84.6423C121.543 84.5123 121.841 84.3172 122.09 84.0688C122.34 83.8204 122.536 83.524 122.668 83.1974C122.799 82.8708 122.863 82.5209 122.856 82.1688V81.7938C122.111 77.6745 120.026 73.9164 116.926 71.1033C113.826 68.2903 109.884 66.5798 105.712 66.2376V57.1376C105.712 55.6188 104.568 54.4813 102.668 54.1001H96.9493C95.4305 54.1001 94.2868 55.2376 93.9055 57.1376V65.8626C82.4743 67.3751 75.243 74.9626 75.243 84.4501C75.243 96.9626 82.8555 101.894 98.8555 103.794C109.524 105.688 112.949 107.969 112.949 114.038C112.949 120.1 107.618 124.275 100.381 124.275C90.4743 124.275 87.0493 120.106 85.9055 114.413C85.5305 112.9 84.3805 112.138 83.2368 112.138H76.7618C76.4103 112.129 76.0608 112.192 75.7343 112.322C75.4078 112.453 75.1112 112.648 74.8623 112.896C74.6134 113.144 74.4175 113.441 74.2864 113.767C74.1552 114.093 74.0915 114.442 74.0993 114.794V115.169C75.618 124.656 81.718 131.481 94.2868 133.381V142.488C94.2868 144 95.4305 145.144 97.3305 145.519H103.049C104.568 145.519 105.712 144.381 106.093 142.488V133.375C117.524 131.481 125.137 123.513 125.137 113.269V113.275Z" fill="white"/>
<path d="M80.5746 153.106C50.8621 142.481 35.6246 109.481 46.6746 80.275C52.3871 64.3375 64.9558 52.2062 80.5746 46.5125C82.0996 45.7562 82.8558 44.6188 82.8558 42.7188V37.4063C82.8558 35.8938 82.0996 34.7563 80.5746 34.375C80.1933 34.375 79.4308 34.375 79.0496 34.75C70.4773 37.427 62.5192 41.7733 55.6335 47.5386C48.7478 53.3039 43.0705 60.3743 38.9286 68.3427C34.7867 76.3111 32.2619 85.0201 31.4996 93.9683C30.7374 102.916 31.7527 111.927 34.4871 120.481C41.3371 141.731 57.7183 158.044 79.0496 164.869C80.5746 165.625 82.0996 164.869 82.4746 163.35C82.8558 162.975 82.8558 162.587 82.8558 161.831V156.519C82.8558 155.381 81.7183 153.869 80.5746 153.106ZM120.95 34.7562C119.425 33.9937 117.9 34.7562 117.525 36.2687C117.143 36.65 117.143 37.0313 117.143 37.7875V43.1C117.143 44.6187 118.281 46.1312 119.425 46.8937C149.137 57.5187 164.375 90.5188 153.325 119.725C147.612 135.663 135.043 147.794 119.425 153.488C117.9 154.244 117.143 155.381 117.143 157.281V162.594C117.143 164.106 117.9 165.244 119.425 165.625C119.806 165.625 120.568 165.625 120.95 165.25C129.522 162.573 137.48 158.227 144.366 152.461C151.251 146.696 156.929 139.626 161.071 131.657C165.212 123.689 167.737 114.98 168.5 106.032C169.262 97.0835 168.246 88.0729 165.512 79.5187C158.662 57.8937 141.9 41.5812 120.95 34.7562Z" fill="white"/>
</g>
<defs>
<clipPath id="clip0_43_7307">
<rect width="200" height="200" fill="white"/>
</clipPath>
</defs>
</svg>
