<svg width="24" height="24" viewBox="0 0 24 24" fill="none" xmlns="http://www.w3.org/2000/svg">
<g clip-path="url(#clip0_27_763)">
<path d="M6.83268 7.77317C6.89935 7.85984 10.6593 12.6598 10.6593 12.6598V16.6665C10.6593 17.0332 10.9593 17.3332 11.3327 17.3332H12.6727C13.0393 17.3332 13.346 17.0332 13.346 16.6665V12.6532C13.346 12.6532 17.006 7.97317 17.1793 7.75984C17.3527 7.5465 17.3327 7.33317 17.3327 7.33317C17.3327 6.9665 17.0327 6.6665 16.6593 6.6665H7.33935C6.93268 6.6665 6.66602 6.9865 6.66602 7.33317C6.66602 7.4665 6.70602 7.6265 6.83268 7.77317Z" fill="#4338CA"/>
</g>
<defs>
<clipPath id="clip0_27_763">
<path d="M0 4C0 1.79086 1.79086 0 4 0H20C22.2091 0 24 1.79086 24 4V20C24 22.2091 22.2091 24 20 24H4C1.79086 24 0 22.2091 0 20V4Z" fill="white"/>
</clipPath>
</defs>
</svg>
