<svg width="32" height="32" viewBox="0 0 32 32" fill="none" xmlns="http://www.w3.org/2000/svg">
<g clip-path="url(#clip0_43_7102)">
<path d="M16 0C24.8366 0 32 7.16344 32 16C32 24.8366 24.8366 32 16 32C7.16344 32 0 24.8366 0 16C0 7.16344 7.16344 0 16 0ZM7.51953 8.9375V25.2148H22.7998V22.0596H11.0166V8.9375H7.51953ZM22.7998 5.78516C21.0779 5.78517 19.6817 7.19618 19.6816 8.9375C19.6816 10.6789 21.0779 12.0918 22.7998 12.0918C24.523 12.0918 25.9199 10.6789 25.9199 8.9375C25.9198 7.19617 24.5229 5.78516 22.7998 5.78516Z" fill="#A5B4FC"/>
</g>
<defs>
<clipPath id="clip0_43_7102">
<rect width="32" height="32" fill="white"/>
</clipPath>
</defs>
</svg>
