<svg width="40" height="41" viewBox="0 0 40 41" fill="none" xmlns="http://www.w3.org/2000/svg">
<path d="M17.4541 1.36377C26.8176 1.36377 34.408 8.95433 34.4082 18.3179C34.4082 27.6816 26.8177 35.2729 17.4541 35.2729C8.09059 35.2728 0.5 27.6815 0.5 18.3179C0.500236 8.95441 8.09074 1.3639 17.4541 1.36377Z" stroke="#A5B4FC"/>
<circle cx="31" cy="31.8638" r="7.5" fill="#F1F5F9" stroke="#262626"/>
<path d="M17.5 0.86377C27.165 0.86377 35 8.69879 35 18.3638C35 28.0288 27.165 35.8638 17.5 35.8638C7.83502 35.8638 0 28.0288 0 18.3638C0 8.69879 7.83502 0.86377 17.5 0.86377ZM15.3252 7.92725L9.49121 11.2993L7.35059 12.5298V24.1968L9.49121 25.4272L15.3779 28.7993L17.5195 30.0298L19.6602 28.7993L25.4395 25.4272L27.5811 24.1968V12.5298L25.4395 11.2993L19.6064 7.92725L17.4658 6.69678L15.3252 7.92725ZM23.2988 14.9917V21.7349L17.4658 25.1069L11.6328 21.7349V14.9917L17.4658 11.6196L23.2988 14.9917Z" fill="#335DD2"/>
<circle cx="31" cy="31.8638" r="8" fill="white" stroke="#A5B4FC"/>
<g clip-path="url(#clip0_43_7364)">
<path d="M33.4934 30.2253C33.3183 30.1252 33.0931 30.1252 32.893 30.2253L31.492 31.0509L30.5413 31.5762L29.1654 32.4018C28.9902 32.5019 28.7651 32.5019 28.5649 32.4018L27.4892 31.7514C27.314 31.6513 27.189 31.4511 27.189 31.226V29.9751C27.189 29.7749 27.289 29.5748 27.4892 29.4497L28.5649 28.8243C28.7401 28.7242 28.9652 28.7242 29.1654 28.8243L30.2411 29.4747C30.4162 29.5748 30.5413 29.7749 30.5413 30.0001V30.8257L31.492 30.2753V29.4247C31.492 29.2246 31.3919 29.0244 31.1918 28.8993L29.1904 27.7235C29.0153 27.6234 28.7901 27.6234 28.59 27.7235L26.5385 28.9243C26.3384 29.0244 26.2383 29.2246 26.2383 29.4247V31.7764C26.2383 31.9765 26.3384 32.1767 26.5385 32.3017L28.5649 33.4776C28.7401 33.5776 28.9652 33.5776 29.1654 33.4776L30.5413 32.677L31.492 32.1266L32.868 31.326C33.0431 31.226 33.2683 31.226 33.4684 31.326L34.5442 31.9515C34.7193 32.0516 34.8444 32.2517 34.8444 32.4769V33.7278C34.8444 33.9279 34.7443 34.128 34.5442 34.2531L33.4934 34.8786C33.3183 34.9786 33.0931 34.9786 32.893 34.8786L31.8172 34.2531C31.6421 34.1531 31.517 33.9529 31.517 33.7278V32.9272L30.5664 33.4776V34.3032C30.5664 34.5033 30.6664 34.7034 30.8666 34.8285L32.893 36.0044C33.0681 36.1044 33.2933 36.1044 33.4934 36.0044L35.5199 34.8285C35.695 34.7285 35.8201 34.5283 35.8201 34.3032V31.9265C35.8201 31.7263 35.72 31.5262 35.5199 31.4011L33.4934 30.2253Z" fill="#8247E5"/>
</g>
<defs>
<clipPath id="clip0_43_7364">
<rect width="9.60682" height="8.38095" fill="white" transform="translate(26.2383 27.6733)"/>
</clipPath>
</defs>
</svg>
