<svg width="48" height="48" viewBox="0 0 48 48" fill="none" xmlns="http://www.w3.org/2000/svg">
<g clip-path="url(#clip0_43_7116)">
<path d="M15.6157 5.66571C15.6762 5.66553 15.7368 5.66535 15.7992 5.66516C15.8668 5.6652 15.9344 5.66524 16.002 5.66529C16.0734 5.66517 16.1449 5.66503 16.2164 5.66487C16.4134 5.66449 16.6104 5.6644 16.8074 5.66437C17.0196 5.66428 17.2318 5.66393 17.4441 5.66361C17.9084 5.66298 18.3726 5.66269 18.8369 5.66249C19.1267 5.66236 19.4164 5.66216 19.7062 5.66195C20.508 5.66138 21.3098 5.66089 22.1116 5.66074C22.163 5.66072 22.2143 5.66071 22.2672 5.6607C22.3186 5.66069 22.3701 5.66068 22.4231 5.66067C22.5274 5.66065 22.6317 5.66063 22.736 5.66061C22.7877 5.6606 22.8394 5.66059 22.8927 5.66058C23.7313 5.66039 24.5698 5.65958 25.4084 5.65848C26.2688 5.65737 27.1292 5.65679 27.9896 5.65673C28.4729 5.65669 28.9562 5.65642 29.4395 5.65557C29.8509 5.65485 30.2624 5.65461 30.6738 5.655C30.8839 5.65518 31.0939 5.65513 31.3039 5.65448C31.4961 5.65388 31.6882 5.65393 31.8804 5.6545C31.95 5.6546 32.0196 5.65445 32.0892 5.65404C32.1837 5.65353 32.2782 5.65396 32.3726 5.65444C32.4251 5.65441 32.4777 5.65438 32.5318 5.65435C32.6903 5.67416 32.7787 5.71799 32.9063 5.8125C33.1451 6.29006 32.9129 7.23092 32.8682 7.74609C32.8595 7.84921 32.8509 7.95233 32.8422 8.05545C32.8107 8.43074 32.7784 8.80596 32.746 9.18118C32.7041 9.66754 32.6635 10.154 32.6251 10.6406C32.6199 10.7055 32.6199 10.7055 32.6147 10.7716C32.5206 11.9659 32.4424 13.1601 32.3872 14.3567C32.3841 14.424 32.3841 14.424 32.3809 14.4926C32.3601 14.9437 32.3398 15.3948 32.321 15.846C32.3138 16.0151 32.3064 16.1843 32.2988 16.3534C32.2954 16.433 32.2921 16.5126 32.289 16.5922C32.2847 16.7016 32.2799 16.8109 32.2749 16.9203C32.2724 16.982 32.2698 17.0437 32.2672 17.1072C32.2501 17.25 32.2501 17.25 32.1563 17.3437C32.0679 17.3565 32.0679 17.3565 31.9571 17.3579C31.9146 17.3587 31.872 17.3595 31.8282 17.3603C31.7806 17.3607 31.7331 17.3611 31.6841 17.3615C31.6331 17.3623 31.5822 17.3631 31.5297 17.3639C31.3528 17.3664 31.176 17.3683 30.9991 17.3701C30.901 17.3713 30.803 17.3726 30.7049 17.3738C30.3706 17.3781 30.0362 17.3819 29.7019 17.3853C29.363 17.3888 29.0241 17.3928 28.6852 17.397C25.7904 17.4333 22.8956 17.4424 20.0005 17.4432C19.7172 17.4433 19.4339 17.4434 19.1505 17.4436C18.6554 17.444 18.1603 17.444 17.6652 17.4438C17.4977 17.4437 17.3302 17.4438 17.1627 17.4439C16.9684 17.444 16.7742 17.4439 16.58 17.4437C16.5091 17.4436 16.4381 17.4436 16.3672 17.4437C16.2711 17.4438 16.175 17.4437 16.079 17.4434C16.0253 17.4434 15.9716 17.4434 15.9163 17.4434C15.7969 17.4375 15.7969 17.4375 15.7501 17.3906C15.74 17.3126 15.7331 17.2342 15.7273 17.1558C15.7236 17.1051 15.7199 17.0544 15.716 17.0022C15.7122 16.9462 15.7084 16.8902 15.7045 16.8325C15.7004 16.774 15.6963 16.7155 15.6921 16.6552C15.6388 15.8561 15.6112 15.0557 15.5812 14.2554C15.5085 12.3255 15.356 10.4043 15.1788 8.48144C15.1487 8.15473 15.1187 7.82801 15.0891 7.50125C15.0775 7.37331 15.0656 7.24539 15.0536 7.11748C14.954 6.03255 14.954 6.03255 15.085 5.80664C15.2554 5.66062 15.3994 5.66595 15.6157 5.66571Z" fill="#4338CA"/>
<path d="M23.6562 30.9909C23.7345 31.0534 23.8106 31.1187 23.8851 31.1857C23.99 31.2756 23.99 31.2756 24.0982 31.2628C24.2006 31.2122 24.2668 31.155 24.3485 31.0751C25.0984 30.4001 26.0343 30.1328 27.023 30.1783C28.1015 30.2623 28.9983 30.758 29.7655 31.5C29.7925 31.526 29.8194 31.552 29.8472 31.5788C30.1773 31.8985 30.4911 32.2207 30.7771 32.5808C31.6177 33.6033 32.5866 34.4084 33.9374 34.5937C34.5281 34.6285 35.1376 34.5909 35.6249 34.2187C36.0489 33.7938 36.1028 33.2353 36.1024 32.663C36.1024 32.6194 36.1025 32.5758 36.1025 32.5308C36.1002 32.2264 36.0774 31.9362 35.9999 31.6406C36.1105 31.7331 36.2196 31.8267 36.328 31.9218C36.3684 31.9566 36.3684 31.9566 36.4097 31.9921C36.9522 32.4922 37.3097 33.2832 37.3696 34.0176C37.4146 35.1373 37.2002 36.1396 36.4217 36.9843C36.3866 37.0232 36.3515 37.062 36.3154 37.1021C36.0255 37.4079 35.704 37.6581 35.3436 37.875C35.3127 37.875 35.2817 37.875 35.2499 37.875C35.2506 37.9535 35.2506 37.9535 35.2514 38.0335C35.2562 38.5267 35.2597 39.0198 35.262 39.513C35.2632 39.7665 35.2649 40.02 35.2675 40.2736C35.2701 40.5182 35.2715 40.7629 35.2721 41.0076C35.2725 41.1009 35.2734 41.1943 35.2746 41.2876C35.2763 41.4184 35.2766 41.5491 35.2765 41.6798C35.2773 41.7184 35.2782 41.757 35.279 41.7968C35.2772 41.9986 35.2676 42.0714 35.1371 42.235C34.984 42.3522 34.9153 42.3579 34.7308 42.3444C34.5911 42.3192 34.5128 42.282 34.4061 42.1875C34.2858 41.9517 34.2475 41.7763 34.2452 41.508C34.2447 41.4745 34.2443 41.4411 34.2438 41.4067C34.2424 41.2974 34.2419 41.1881 34.2415 41.0788C34.2407 41.0025 34.2399 40.9262 34.239 40.85C34.2367 40.6502 34.2353 40.4504 34.2341 40.2505C34.2327 40.0463 34.2305 39.842 34.2284 39.6378C34.2244 39.2377 34.2212 38.8376 34.2186 38.4375C34.1925 38.4455 34.1663 38.4536 34.1394 38.4619C34.0186 38.4991 33.8977 38.5359 33.7768 38.5728C33.7357 38.5855 33.6946 38.5982 33.6522 38.6113C33.2672 38.7281 32.8827 38.8038 32.4842 38.8593C32.4385 38.866 32.4385 38.866 32.3919 38.8727C30.2175 39.1554 27.7438 38.5875 25.9959 37.2441C25.7074 37.0157 25.4364 36.7711 25.1717 36.5156C25.1377 36.4834 25.1037 36.4513 25.0687 36.4182C24.6768 36.0394 24.3508 35.607 24.0467 35.1562C24.011 35.2049 23.9753 35.2536 23.9385 35.3038C23.6627 35.6774 23.3844 36.0394 23.0624 36.375C23.0212 36.4191 22.9801 36.4632 22.9377 36.5086C21.4297 38.0959 19.1493 38.8523 16.9981 38.9179C15.0625 38.9499 13.2275 38.5022 11.7772 37.1572C11.0336 36.3667 10.6061 35.3688 10.6184 34.2827C10.6486 33.4509 10.9759 32.6871 11.578 32.1093C11.685 32.0116 11.7933 31.9193 11.9061 31.8281C11.9589 31.9864 11.9409 32.0439 11.9061 32.2031C11.8961 32.3719 11.8974 32.5408 11.8973 32.7099C11.8965 32.7774 11.8965 32.7774 11.8956 32.8462C11.8946 33.3495 11.9994 33.7952 12.3664 34.1638C12.8484 34.5501 13.4135 34.6494 14.0151 34.5835C14.4348 34.5261 14.8132 34.4224 15.1874 34.2187C15.233 34.1945 15.2787 34.1704 15.3258 34.1455C15.8699 33.8441 16.3131 33.4363 16.747 32.9969C16.8166 32.9264 16.8866 32.8562 16.9567 32.7862C17.1762 32.5659 17.3895 32.3424 17.5921 32.1064C19.1975 30.2761 21.5583 29.3919 23.6562 30.9909Z" fill="#4338CA"/>
<path d="M11.7047 18.0405C11.7691 18.0403 11.7691 18.0403 11.8348 18.0401C11.9803 18.0397 12.1258 18.0397 12.2713 18.0397C12.376 18.0395 12.4807 18.0393 12.5854 18.0391C12.8744 18.0385 13.1634 18.0382 13.4525 18.038C13.7317 18.0378 14.011 18.0373 14.2903 18.0369C15.0388 18.0357 15.7872 18.035 16.5357 18.0344C16.7836 18.0342 17.0314 18.0339 17.2792 18.0337C18.5963 18.0325 19.9133 18.0315 21.2303 18.0309C21.5356 18.0308 21.8408 18.0306 22.146 18.0305C22.1839 18.0305 22.2218 18.0305 22.2609 18.0304C23.4909 18.0299 24.7209 18.0284 25.9509 18.0265C27.2148 18.0245 28.4787 18.0232 29.7426 18.023C29.921 18.0229 30.0994 18.0229 30.2777 18.0228C30.3129 18.0228 30.348 18.0228 30.3841 18.0228C30.9499 18.0227 31.5157 18.0217 32.0815 18.0205C32.6498 18.0192 33.2182 18.0189 33.7866 18.0194C34.0947 18.0196 34.4027 18.0195 34.7108 18.0183C34.9926 18.0173 35.2744 18.0173 35.5561 18.0182C35.6583 18.0183 35.7605 18.0181 35.8627 18.0174C36.0012 18.0165 36.1395 18.017 36.278 18.0179C36.3382 18.017 36.3382 18.017 36.3995 18.0161C36.6037 18.0191 36.6799 18.0283 36.8453 18.1598C36.9377 18.2813 36.967 18.3274 36.9666 18.4763C36.967 18.5131 36.9674 18.5498 36.9679 18.5877C36.9671 18.6268 36.9663 18.6658 36.9655 18.7061C36.9655 18.7468 36.9655 18.7875 36.9655 18.8295C36.9653 18.9154 36.9645 19.0013 36.9631 19.0872C36.9612 19.2184 36.9612 19.3494 36.9615 19.4806C36.961 19.5642 36.9604 19.6479 36.9597 19.7315C36.9597 19.7705 36.9597 19.8096 36.9597 19.8499C36.9552 20.0672 36.9428 20.2182 36.7971 20.3907C36.5585 20.5879 36.3847 20.605 36.0888 20.6018C36.046 20.602 36.0033 20.6023 35.9592 20.6026C35.8154 20.6033 35.6717 20.6026 35.528 20.602C35.4241 20.6022 35.3202 20.6025 35.2163 20.6029C34.9303 20.6036 34.6444 20.6032 34.3585 20.6027C34.082 20.6023 33.8054 20.6028 33.5289 20.6033C32.9283 20.6042 32.3277 20.6042 31.7271 20.6036C31.2015 20.6031 30.6759 20.603 30.1504 20.6032C30.1155 20.6033 30.0807 20.6033 30.0448 20.6033C29.9034 20.6034 29.7619 20.6034 29.6205 20.6035C28.2934 20.604 26.9663 20.6035 25.6392 20.6025C24.4597 20.6016 23.2803 20.6017 22.1008 20.6026C20.7761 20.6036 19.4514 20.604 18.1266 20.6034C17.9855 20.6034 17.8443 20.6033 17.7031 20.6032C17.6684 20.6032 17.6336 20.6032 17.5978 20.6032C17.0725 20.603 16.5472 20.6032 16.0219 20.6037C15.4247 20.6042 14.8276 20.6041 14.2304 20.6031C13.9255 20.6026 13.6207 20.6024 13.3158 20.603C13.037 20.6036 12.7582 20.6033 12.4794 20.6023C12.3782 20.6021 12.2771 20.6022 12.176 20.6026C12.039 20.6032 11.9021 20.6026 11.7651 20.6018C11.7056 20.6024 11.7056 20.6024 11.6449 20.6031C11.4576 20.6007 11.3661 20.5922 11.2042 20.4894C10.9917 20.2677 11.0009 20.0327 11.0001 19.7417C10.9998 19.702 10.9995 19.6624 10.9991 19.6215C10.9987 19.5378 10.9984 19.4541 10.9985 19.3704C10.9983 19.2426 10.9966 19.1149 10.9948 18.9872C10.9945 18.9057 10.9943 18.8242 10.9942 18.7427C10.9936 18.7047 10.9929 18.6666 10.9922 18.6274C10.9937 18.4404 11.0021 18.3497 11.1051 18.188C11.2886 18.0121 11.4631 18.0402 11.7047 18.0405Z" fill="#4338CA"/>
<path d="M29.3848 21.2207C30.6203 21.2398 31.6224 21.7331 32.4844 22.5938C32.5304 22.639 32.5302 22.6394 32.5771 22.6855C33.1286 23.2687 33.4693 24.064 33.6094 24.8438C33.6464 24.843 33.6835 24.8426 33.7217 24.8418C33.8902 24.8389 34.059 24.8368 34.2275 24.835C34.2859 24.8338 34.3442 24.8323 34.4043 24.8311C34.4606 24.8306 34.5171 24.8305 34.5752 24.8301C34.627 24.8293 34.6791 24.8289 34.7324 24.8281C34.8986 24.8467 34.9796 24.879 35.1094 24.9844C35.2424 25.2017 35.2671 25.3652 35.2666 25.6182C35.2667 25.6526 35.2675 25.6871 35.2676 25.7227C35.2678 25.8377 35.2664 25.9533 35.2656 26.0684C35.2656 26.1509 35.2655 26.2338 35.2656 26.3164C35.2657 26.5404 35.2647 26.7643 35.2637 26.9883C35.2628 27.2226 35.2629 27.4571 35.2627 27.6914C35.2623 28.1352 35.2612 28.5797 35.2598 29.0234C35.2582 29.5286 35.2575 30.0339 35.2568 30.5391C35.2554 31.5781 35.2531 32.6172 35.25 33.6562C35.1902 33.6865 35.1302 33.7169 35.0703 33.7471C35.0369 33.7639 35.0031 33.7805 34.9688 33.7979C34.8652 33.8483 34.7618 33.8898 34.6523 33.9258C34.6189 33.9371 34.5852 33.9483 34.5508 33.96C34.4534 33.9841 34.4529 33.9844 34.2656 33.9844V25.9688L33.7031 26.0156C33.6971 26.0736 33.6966 26.0737 33.6904 26.1328C33.5739 27.0908 33.2335 27.9231 32.5781 28.6406C32.5454 28.6771 32.5122 28.7134 32.4785 28.751C31.7172 29.5583 30.5673 30.0965 29.4561 30.1484C28.2577 30.1544 27.1565 29.8186 26.25 29.0156C26.203 28.9786 26.2032 28.9782 26.1553 28.9404C25.3562 28.2964 24.8863 27.2483 24.75 26.25C24.652 24.9112 24.9344 23.7802 25.8252 22.748C26.6876 21.7835 27.9432 21.2125 29.2354 21.2197C29.3093 21.2201 29.3094 21.2203 29.3848 21.2207ZM31.2002 22.9805C29.8505 21.9342 27.8419 22.2869 26.7021 23.457C26.0682 24.2081 25.8919 24.9852 25.9062 25.9395C25.9381 26.7383 26.3141 27.4838 26.8916 28.0293C26.9283 28.062 26.9644 28.0932 27 28.125C27.0332 28.1548 27.0654 28.184 27.0977 28.2129C27.8393 28.832 28.7269 29.0343 29.6719 28.9688C30.5416 28.8588 31.2659 28.4091 31.8281 27.75C32.3689 27.0347 32.6116 26.1585 32.5312 25.2656C32.3947 24.3388 31.9193 23.5738 31.2002 22.9805Z" fill="#4338CA"/>
</g>
<defs>
<clipPath id="clip0_43_7116">
<rect width="48" height="48" fill="white"/>
</clipPath>
</defs>
</svg>
