<svg width="32" height="32" viewBox="0 0 32 32" fill="none" xmlns="http://www.w3.org/2000/svg">
<circle cx="16" cy="16" r="16" fill="#A5B4FC"/>
<path d="M16 25.5244L9.9043 17.2354L15.958 20.7383C15.9717 20.7368 15.9859 20.7344 16 20.7344C16.0139 20.7344 16.0275 20.7368 16.041 20.7383L22.0947 17.2354L16 25.5244ZM16.3809 21.4219V23.7197L19.3213 19.7197L16.3809 21.4219ZM15.6182 23.7188V21.4209L12.6777 19.7197L15.6182 23.7188ZM16.2891 6.9375C16.3139 6.96693 16.3355 6.99908 16.3506 7.03516L22.0947 16.1768L16 19.7041L9.9043 16.1768L10.0742 15.9043C10.094 15.8287 10.1363 15.7596 10.1982 15.708L15.6465 7.03809C15.6624 6.99901 15.6856 6.96395 15.7129 6.93262L16 6.47656L16.2891 6.9375ZM16.3809 18.6035L20.7109 16.0967L16.3809 13.9668V18.6035ZM11.2139 16.0547L15.6182 18.6025V13.958L11.2139 16.0547ZM16.3809 13.1172L20.5664 15.1758L16.3809 8.51367V13.1172ZM11.4941 15.0762L15.6182 13.1133V8.51562L11.4941 15.0762Z" fill="white"/>
</svg>
