<svg width="24" height="24" viewBox="0 0 24 24" fill="none" xmlns="http://www.w3.org/2000/svg">
<path d="M7.13281 13.625C6.68594 13.625 6.30339 13.4659 5.98516 13.1477C5.66693 12.8294 5.50781 12.4469 5.50781 12C5.50781 11.5531 5.66693 11.1706 5.98516 10.8523C6.30339 10.5341 6.68594 10.375 7.13281 10.375C7.57969 10.375 7.96224 10.5341 8.28047 10.8523C8.5987 11.1706 8.75781 11.5531 8.75781 12C8.75781 12.4469 8.5987 12.8294 8.28047 13.1477C7.96224 13.4659 7.57969 13.625 7.13281 13.625ZM12.0078 13.625C11.5609 13.625 11.1784 13.4659 10.8602 13.1477C10.5419 12.8294 10.3828 12.4469 10.3828 12C10.3828 11.5531 10.5419 11.1706 10.8602 10.8523C11.1784 10.5341 11.5609 10.375 12.0078 10.375C12.4547 10.375 12.8372 10.5341 13.1555 10.8523C13.4737 11.1706 13.6328 11.5531 13.6328 12C13.6328 12.4469 13.4737 12.8294 13.1555 13.1477C12.8372 13.4659 12.4547 13.625 12.0078 13.625ZM16.8828 13.625C16.4359 13.625 16.0534 13.4659 15.7352 13.1477C15.4169 12.8294 15.2578 12.4469 15.2578 12C15.2578 11.5531 15.4169 11.1706 15.7352 10.8523C16.0534 10.5341 16.4359 10.375 16.8828 10.375C17.3297 10.375 17.7122 10.5341 18.0305 10.8523C18.3487 11.1706 18.5078 11.5531 18.5078 12C18.5078 12.4469 18.3487 12.8294 18.0305 13.1477C17.7122 13.4659 17.3297 13.625 16.8828 13.625Z" fill="#262626"/>
</svg>
