<svg width="32" height="32" viewBox="0 0 32 32" fill="none" xmlns="http://www.w3.org/2000/svg">
<g clip-path="url(#clip0_43_7094)">
<path d="M16 0C7.163 0 0 7.163 0 16C0 24.837 7.163 32 16 32C24.837 32 32 24.837 32 16C32 7.163 24.837 0 16 0ZM11.024 6.6855C11.3361 6.63378 11.6566 6.68669 11.9355 6.836L16.4005 9.43175C16.606 9.53907 16.7773 9.70182 16.895 9.90155C17.0127 10.1013 17.0721 10.33 17.0665 10.5618V12.3105L14.9843 13.5518V11.7475C14.9768 11.517 14.9106 11.2923 14.7921 11.0945C14.6735 10.8968 14.5065 10.7325 14.3068 10.6173L11.88 9.2625C11.6717 9.15094 11.4391 9.09256 11.2028 9.09256C10.9664 9.09256 10.7338 9.15094 10.5255 9.2625L8.09875 10.617C7.89123 10.7229 7.71766 10.885 7.59782 11.0848C7.47799 11.2846 7.41672 11.5141 7.421 11.747V14.5658C7.42849 14.7962 7.49464 15.021 7.61319 15.2187C7.73174 15.4165 7.89878 15.5808 8.0985 15.696L10.5255 17.1082C10.734 17.2193 10.9665 17.2775 11.2028 17.2775C11.439 17.2775 11.6715 17.2193 11.88 17.1082L14.9335 15.3015L17.0665 14.116L20.12 12.3103C20.3285 12.1992 20.561 12.1411 20.7973 12.1411C21.0335 12.1411 21.266 12.1992 21.4745 12.3103L25.9893 14.9045C26.1968 15.0101 26.3704 15.172 26.4902 15.3717C26.6101 15.5713 26.6713 15.8007 26.667 16.0335V21.2835C26.6597 21.513 26.5942 21.7369 26.4767 21.9342C26.3591 22.1315 26.1934 22.2956 25.995 22.4112L21.4805 25.0075C21.272 25.1191 21.0392 25.1774 20.8027 25.1774C20.5663 25.1774 20.3335 25.1191 20.125 25.0075L15.6103 22.4125C15.4029 22.3065 15.2294 22.1444 15.1098 21.9446C14.9901 21.7448 14.929 21.5154 14.9335 21.2825V19.4775L16.96 18.293V20.1055C16.9676 20.3357 17.0338 20.5601 17.1524 20.7576C17.2709 20.9551 17.4379 21.119 17.6375 21.234L20.0645 22.5885C20.2728 22.7001 20.5054 22.7584 20.7418 22.7584C20.9781 22.7584 21.2107 22.7001 21.419 22.5885L23.8458 21.1785C24.0529 21.0727 24.2262 20.9108 24.3459 20.7113C24.4655 20.5117 24.5267 20.2826 24.5225 20.05V17.2843C24.5151 17.0539 24.4491 16.8292 24.3307 16.6315C24.2123 16.4337 24.0454 16.2695 23.8458 16.1542L21.419 14.8C21.2105 14.6889 20.978 14.6308 20.7418 14.6308C20.5055 14.6308 20.273 14.6889 20.0645 14.8L17.0215 16.5443L14.9335 17.7855L11.88 19.5355C11.6715 19.6466 11.439 19.7047 11.2028 19.7047C10.9665 19.7047 10.734 19.6466 10.5255 19.5355L6.01075 16.9335C5.80407 16.8282 5.63102 16.667 5.51123 16.4684C5.39144 16.2697 5.3297 16.0415 5.333 15.8095V10.5615C5.32121 10.32 5.38571 10.0809 5.51735 9.8781C5.649 9.6753 5.84112 9.51905 6.0665 9.4315L10.581 6.836C10.7194 6.76193 10.8691 6.71109 11.024 6.6855Z" fill="#A5B4FC"/>
</g>
<defs>
<clipPath id="clip0_43_7094">
<rect width="32" height="32" fill="white"/>
</clipPath>
</defs>
</svg>
