<svg width="30" height="30" viewBox="0 0 30 30" fill="none" xmlns="http://www.w3.org/2000/svg">
<path d="M18.0057 16.805H17.3734L17.1492 16.5889C17.9337 15.6764 18.4059 14.4917 18.4059 13.203C18.4059 10.3293 16.0766 8 13.203 8C10.3293 8 8 10.3293 8 13.203C8 16.0766 10.3293 18.4059 13.203 18.4059C14.4917 18.4059 15.6764 17.9337 16.5889 17.1492L16.805 17.3734V18.0057L20.8073 22L22 20.8073L18.0057 16.805ZM13.203 16.805C11.2098 16.805 9.60091 15.1961 9.60091 13.203C9.60091 11.2098 11.2098 9.60091 13.203 9.60091C15.1961 9.60091 16.805 11.2098 16.805 13.203C16.805 15.1961 15.1961 16.805 13.203 16.805Z" fill="#4338CA"/>
</svg>
