<svg width="41" height="41" viewBox="0 0 41 41" fill="none" xmlns="http://www.w3.org/2000/svg">
<path d="M17.4541 0.546387C26.8176 0.546387 34.408 8.13695 34.4082 17.5005C34.4082 26.8642 26.8177 34.4556 17.4541 34.4556C8.09059 34.4554 0.5 26.8641 0.5 17.5005C0.500236 8.13703 8.09074 0.546516 17.4541 0.546387Z" stroke="#A5B4FC"/>
<path d="M17.5 35.0464C27.165 35.0464 35 27.2114 35 17.5464C35 7.8814 27.165 0.0463867 17.5 0.0463867C7.83502 0.0463867 0 7.8814 0 17.5464C0 27.2114 7.83502 35.0464 17.5 35.0464Z" fill="#3E73C4"/>
<path d="M21.8994 19.8693C21.8994 17.5462 20.4994 16.7499 17.6994 16.4174C15.7001 16.1516 15.3009 15.6212 15.3009 14.6915C15.3009 13.7618 15.968 13.1646 17.3002 13.1646C18.5001 13.1646 19.1673 13.5627 19.4998 14.5591C19.5344 14.6555 19.5977 14.7389 19.6812 14.7982C19.7647 14.8574 19.8644 14.8897 19.9668 14.8905H21.0332C21.0948 14.8922 21.1561 14.8813 21.2133 14.8586C21.2706 14.8358 21.3226 14.8017 21.3663 14.7582C21.41 14.7147 21.4444 14.6628 21.4674 14.6057C21.4904 14.5485 21.5016 14.4873 21.5002 14.4257V14.3601C21.3699 13.6392 21.0051 12.9815 20.4626 12.4892C19.9201 11.997 19.2302 11.6976 18.5001 11.6377V10.0452C18.5001 9.77945 18.2999 9.58039 17.9674 9.51367H16.9666C16.7009 9.51367 16.5007 9.71273 16.434 10.0452V11.5721C14.4335 11.8368 13.168 13.1646 13.168 14.8249C13.168 17.0146 14.5002 17.8776 17.3002 18.2101C19.1673 18.5415 19.7666 18.9407 19.7666 20.0027C19.7666 21.0637 18.8337 21.7943 17.5671 21.7943C15.8335 21.7943 15.2341 21.0648 15.034 20.0684C14.9684 19.8037 14.7671 19.6702 14.5669 19.6702H13.4338C13.3723 19.6687 13.3111 19.6797 13.254 19.7026C13.1969 19.7254 13.145 19.7595 13.1014 19.803C13.0579 19.8464 13.0236 19.8983 13.0006 19.9554C12.9777 20.0124 12.9665 20.0736 12.9679 20.1351V20.2007C13.2337 21.861 14.3012 23.0554 16.5007 23.3879V24.9815C16.5007 25.2462 16.7009 25.4463 17.0334 25.512H18.0341C18.2999 25.512 18.5001 25.3129 18.5668 24.9815V23.3868C20.5673 23.0554 21.8994 21.6609 21.8994 19.8682V19.8693Z" fill="white"/>
<path d="M14.1008 26.84C8.90116 24.9806 6.2346 19.2056 8.16835 14.0945C9.16803 11.3054 11.3676 9.18248 14.1008 8.18607C14.3677 8.05373 14.5001 7.85467 14.5001 7.52217V6.59248C14.5001 6.32779 14.3677 6.12873 14.1008 6.06201C14.0341 6.06201 13.9007 6.06201 13.834 6.12764C12.3338 6.59612 10.9411 7.35671 9.73615 8.36564C8.53116 9.37456 7.53764 10.6119 6.8128 12.0064C6.08797 13.4008 5.64613 14.9249 5.51273 16.4908C5.37933 18.0568 5.55701 19.6336 6.03553 21.1306C7.23428 24.8494 10.101 27.704 13.834 28.8984C14.1008 29.0308 14.3677 28.8984 14.4333 28.6326C14.5001 28.567 14.5001 28.4992 14.5001 28.3669V27.4372C14.5001 27.2381 14.301 26.9734 14.1008 26.84ZM21.1665 6.12873C20.8996 5.99529 20.6327 6.12873 20.5671 6.39342C20.5004 6.46014 20.5004 6.52686 20.5004 6.6592V7.58889C20.5004 7.85467 20.6994 8.11936 20.8996 8.25279C26.0993 10.1122 28.7658 15.8872 26.8321 20.9983C25.8324 23.7873 23.6329 25.9103 20.8996 26.9067C20.6327 27.039 20.5004 27.2381 20.5004 27.5706V28.5003C20.5004 28.765 20.6327 28.964 20.8996 29.0308C20.9663 29.0308 21.0998 29.0308 21.1665 28.9651C22.6666 28.4967 24.0593 27.7361 25.2643 26.7271C26.4693 25.7182 27.4628 24.4809 28.1876 23.0864C28.9125 21.6919 29.3543 20.1679 29.4877 18.6019C29.6211 17.036 29.4434 15.4592 28.9649 13.9622C27.7662 10.1778 24.8327 7.32311 21.1665 6.12873Z" fill="white"/>
<circle cx="32" cy="32" r="8" fill="white" stroke="#A5B4FC"/>
<path d="M33.5775 31.4149L34.6056 29.6703L37.3769 33.9866L37.3782 34.815L37.3692 29.1148C37.3626 28.9755 37.2886 28.848 37.1706 28.7728L32.1812 25.9029C32.0646 25.8455 31.9165 25.8462 31.8 25.9047C31.7843 25.9126 31.7695 25.9212 31.7554 25.9306L31.738 25.9415L26.895 28.7479L26.8762 28.7566C26.852 28.7676 26.8276 28.7818 26.8046 28.7982C26.7128 28.864 26.6518 28.9614 26.6321 29.0706C26.6292 29.0871 26.6269 29.104 26.626 29.121L26.6336 33.7661L29.2149 29.7652C29.5398 29.2347 30.248 29.0637 30.9053 29.0731L31.6768 29.0935L27.1311 36.3834L27.667 36.6918L32.267 29.1009L34.3003 29.0935L29.7121 36.876L31.6241 37.9758L31.8526 38.1071C31.9492 38.1464 32.0631 38.1484 32.1606 38.1132L37.22 35.1811L36.2527 35.7417L33.5775 31.4149ZM33.9697 37.0648L32.0386 34.0337L33.2175 32.0333L35.7537 36.0308L33.9697 37.0648Z" fill="#2D374B"/>
<path d="M32.0381 34.0337L33.9693 37.0646L35.7532 36.0308L33.217 32.0332L32.0381 34.0337Z" fill="#28A0F0"/>
<path d="M37.3779 34.8151L37.3766 33.9867L34.6053 29.6704L33.5771 31.415L36.2525 35.7418L37.2198 35.1812C37.3146 35.1042 37.3721 34.9911 37.3781 34.8691L37.3779 34.8151Z" fill="#28A0F0"/>
<path d="M25.7646 35.5957L27.1307 36.3828L31.6763 29.093L30.9049 29.0726C30.2476 29.0633 29.5394 29.2342 29.2144 29.7647L26.6331 33.7656L25.7646 35.0999V35.5957V35.5957Z" fill="white"/>
<path d="M34.3004 29.0933L32.2671 29.1007L27.667 36.6916L29.2749 37.6173L29.7121 36.8758L34.3004 29.0933Z" fill="white"/>
<path d="M38.2345 29.0828C38.2176 28.6576 37.9873 28.2684 37.6267 28.0417L32.5719 25.1348C32.2152 24.9552 31.7696 24.9549 31.4122 25.1347C31.37 25.156 26.4965 27.9824 26.4965 27.9824C26.4291 28.0147 26.3641 28.0533 26.3031 28.097C25.9811 28.3278 25.7849 28.6863 25.7646 29.0802V35.1003L26.6331 33.766L26.6255 29.1208C26.6265 29.1039 26.6287 29.0871 26.6316 29.0706C26.6513 28.9613 26.7123 28.8639 26.8042 28.798C26.8272 28.7816 31.7837 25.9125 31.7995 25.9045C31.916 25.846 32.064 25.8453 32.1807 25.9027L37.17 28.7726C37.288 28.8478 37.362 28.9753 37.3686 29.1146V34.8687C37.3626 34.9907 37.3143 35.1038 37.2195 35.1808L36.2522 35.7414L35.753 36.0307L33.9691 37.0645L32.16 38.1129C32.0626 38.1481 31.9486 38.1461 31.852 38.1068L29.7116 36.8757L29.2743 37.6173L31.1979 38.7248C31.2615 38.7609 31.3182 38.793 31.3647 38.8192C31.4367 38.8596 31.4858 38.8865 31.5031 38.895C31.6398 38.9614 31.8365 39 32.0138 39C32.1763 39 32.3348 38.9702 32.4848 38.9114L37.7395 35.8684C38.0411 35.6346 38.2186 35.2822 38.2345 34.9005V29.0828Z" fill="#96BEDC"/>
</svg>
