<svg width="40" height="40" viewBox="0 0 40 40" fill="none" xmlns="http://www.w3.org/2000/svg">
<path d="M17.4541 0.818848C26.8176 0.818848 34.408 8.40941 34.4082 17.7729C34.4082 27.1367 26.8177 34.728 17.4541 34.728C8.09059 34.7279 0.5 27.1366 0.5 17.7729C0.500236 8.40949 8.09074 0.818977 17.4541 0.818848Z" stroke="#A5B4FC"/>
<path d="M17.5 35.3188C27.165 35.3188 35 27.4838 35 17.8188C35 8.15386 27.165 0.318848 17.5 0.318848C7.83502 0.318848 0 8.15386 0 17.8188C0 27.4838 7.83502 35.3188 17.5 35.3188Z" fill="#3E73C4"/>
<path d="M21.8994 20.1418C21.8994 17.8186 20.4994 17.0224 17.6994 16.6899C15.7001 16.4241 15.3009 15.8936 15.3009 14.9639C15.3009 14.0343 15.968 13.4371 17.3002 13.4371C18.5001 13.4371 19.1673 13.8352 19.4998 14.8316C19.5344 14.928 19.5977 15.0114 19.6812 15.0706C19.7647 15.1299 19.8644 15.1621 19.9668 15.163H21.0332C21.0948 15.1647 21.1561 15.1538 21.2133 15.131C21.2706 15.1083 21.3226 15.0741 21.3663 15.0307C21.41 14.9872 21.4444 14.9353 21.4674 14.8782C21.4904 14.821 21.5016 14.7598 21.5002 14.6982V14.6325C21.3699 13.9116 21.0051 13.254 20.4626 12.7617C19.9201 12.2694 19.2302 11.9701 18.5001 11.9102V10.3177C18.5001 10.0519 18.2999 9.85285 17.9674 9.78613H16.9666C16.7009 9.78613 16.5007 9.9852 16.434 10.3177V11.8446C14.4335 12.1093 13.168 13.4371 13.168 15.0974C13.168 17.2871 14.5002 18.15 17.3002 18.4825C19.1673 18.8139 19.7666 19.2132 19.7666 20.2752C19.7666 21.3361 18.8337 22.0668 17.5671 22.0668C15.8335 22.0668 15.2341 21.3372 15.034 20.3408C14.9684 20.0761 14.7671 19.9427 14.5669 19.9427H13.4338C13.3723 19.9412 13.3111 19.9522 13.254 19.975C13.1969 19.9978 13.145 20.032 13.1014 20.0754C13.0579 20.1189 13.0236 20.1707 13.0006 20.2278C12.9777 20.2849 12.9665 20.346 12.9679 20.4075V20.4732C13.2337 22.1335 14.3012 23.3279 16.5007 23.6604V25.2539C16.5007 25.5186 16.7009 25.7188 17.0334 25.7844H18.0341C18.2999 25.7844 18.5001 25.5854 18.5668 25.2539V23.6593C20.5673 23.3279 21.8994 21.9333 21.8994 20.1407V20.1418Z" fill="white"/>
<path d="M14.1008 27.1124C8.90116 25.2531 6.2346 19.4781 8.16835 14.367C9.16803 11.5779 11.3676 9.45494 14.1008 8.45854C14.3677 8.32619 14.5001 8.12713 14.5001 7.79463V6.86494C14.5001 6.60025 14.3677 6.40119 14.1008 6.33447C14.0341 6.33447 13.9007 6.33447 13.834 6.4001C12.3338 6.86858 10.9411 7.62918 9.73615 8.6381C8.53116 9.64702 7.53764 10.8843 6.8128 12.2788C6.08797 13.6733 5.64613 15.1974 5.51273 16.7633C5.37933 18.3292 5.55701 19.9061 6.03553 21.4031C7.23428 25.1218 10.101 27.9765 13.834 29.1709C14.1008 29.3032 14.3677 29.1709 14.4333 28.9051C14.5001 28.8395 14.5001 28.7717 14.5001 28.6393V27.7096C14.5001 27.5106 14.301 27.2459 14.1008 27.1124ZM21.1665 6.40119C20.8996 6.26775 20.6327 6.40119 20.5671 6.66588C20.5004 6.7326 20.5004 6.79932 20.5004 6.93166V7.86135C20.5004 8.12713 20.6994 8.39182 20.8996 8.52525C26.0993 10.3846 28.7658 16.1596 26.8321 21.2707C25.8324 24.0598 23.6329 26.1828 20.8996 27.1792C20.6327 27.3115 20.5004 27.5106 20.5004 27.8431V28.7728C20.5004 29.0374 20.6327 29.2365 20.8996 29.3032C20.9663 29.3032 21.0998 29.3032 21.1665 29.2376C22.6666 28.7691 24.0593 28.0085 25.2643 26.9996C26.4693 25.9907 27.4628 24.7534 28.1876 23.3589C28.9125 21.9644 29.3543 20.4403 29.4877 18.8744C29.6211 17.3085 29.4434 15.7316 28.9649 14.2346C27.7662 10.4503 24.8327 7.59557 21.1665 6.40119Z" fill="white"/>
<path d="M31.7344 39.8638C36.1527 39.8638 39.7344 36.282 39.7344 31.8638C39.7344 27.4455 36.1527 23.8638 31.7344 23.8638C27.3161 23.8638 23.7344 27.4455 23.7344 31.8638C23.7344 36.282 27.3161 39.8638 31.7344 39.8638Z" fill="#FF007A"/>
<path d="M29.865 26.7471C29.7225 26.7251 29.7165 26.7221 29.7835 26.7121C29.912 26.6921 30.216 26.7196 30.4255 26.7691C30.914 26.8856 31.3585 27.1831 31.8335 27.7116L31.9595 27.8516L32.1395 27.8231C32.8995 27.7006 33.673 27.7981 34.3195 28.0966C34.4975 28.1786 34.778 28.3421 34.813 28.3846C34.8245 28.3976 34.845 28.4841 34.8585 28.5761C34.9065 28.8946 34.8825 29.1386 34.7855 29.3211C34.7325 29.4201 34.7295 29.4511 34.765 29.5361C34.7819 29.5713 34.8082 29.6009 34.8411 29.6218C34.874 29.6426 34.9121 29.6539 34.951 29.6541C35.112 29.6541 35.285 29.3941 35.365 29.0326L35.397 28.8891L35.46 28.9606C35.806 29.3526 36.0775 29.8871 36.124 30.2671L36.1365 30.3666L36.078 30.2766C35.978 30.1216 35.878 30.0156 35.749 29.9301C35.517 29.7766 35.2715 29.7246 34.6215 29.6901C34.0345 29.6591 33.702 29.6091 33.373 29.5016C32.8125 29.3191 32.53 29.0756 31.864 28.2021C31.5685 27.8141 31.3855 27.5996 31.204 27.4271C30.7905 27.0341 30.3845 26.8281 29.865 26.7471Z" fill="white"/>
<path d="M34.9457 27.6141C34.9607 27.3541 34.9957 27.1826 35.0667 27.0261C35.0947 26.9641 35.1212 26.9131 35.1252 26.9131C35.1208 26.9482 35.1115 26.9825 35.0977 27.0151C35.0462 27.1671 35.0377 27.3751 35.0732 27.6166C35.1182 27.9236 35.1442 27.9676 35.4682 28.2991C35.6207 28.4546 35.7977 28.6506 35.8617 28.7351L35.9782 28.8881L35.8617 28.7786C35.7192 28.6451 35.3912 28.3836 35.3187 28.3466C35.2702 28.3216 35.2627 28.3221 35.2327 28.3516C35.2052 28.3796 35.1992 28.4206 35.1957 28.6161C35.1897 28.9201 35.1482 29.1161 35.0477 29.3111C34.9937 29.4161 34.9852 29.3941 35.0342 29.2746C35.0707 29.1856 35.0742 29.1466 35.0742 28.8521C35.0742 28.2601 35.0037 28.1181 34.5912 27.8741C34.4671 27.8021 34.3396 27.736 34.2092 27.6761C34.1448 27.6502 34.0823 27.6198 34.0222 27.5851C34.0337 27.5736 34.4357 27.6906 34.5972 27.7531C34.8382 27.8456 34.8777 27.8576 34.9072 27.8461C34.9267 27.8386 34.9362 27.7816 34.9457 27.6141ZM30.1422 28.6266C29.8527 28.2281 29.6737 27.6166 29.7122 27.1596L29.7242 27.0181L29.7902 27.0301C29.9142 27.0526 30.1277 27.1321 30.2277 27.1931C30.5017 27.3596 30.6207 27.5791 30.7412 28.1421C30.7767 28.3071 30.8232 28.4936 30.8447 28.5571C30.8787 28.6586 31.0087 28.8961 31.1147 29.0506C31.1907 29.1616 31.1397 29.2141 30.9717 29.1991C30.7147 29.1756 30.3667 28.9356 30.1422 28.6266ZM34.5947 31.5941C33.2412 31.0491 32.7647 30.5761 32.7647 29.7781C32.7647 29.6606 32.7687 29.5646 32.7732 29.5646C32.7782 29.5646 32.8307 29.6031 32.8897 29.6506C33.1642 29.8706 33.4717 29.9646 34.3222 30.0886C34.8227 30.1621 35.1047 30.2211 35.3647 30.3071C36.1907 30.5811 36.7017 31.1371 36.8237 31.8941C36.8587 32.1141 36.8382 32.5266 36.7807 32.7441C36.7357 32.9161 36.5972 33.2256 36.5607 33.2376C36.5507 33.2406 36.5407 33.2021 36.5377 33.1486C36.5237 32.8646 36.3802 32.5876 36.1387 32.3801C35.8642 32.1446 35.4962 31.9566 34.5947 31.5941ZM33.6447 31.8201C33.6287 31.7235 33.6069 31.628 33.5792 31.5341L33.5442 31.4311L33.6087 31.5031C33.6972 31.6031 33.7677 31.7301 33.8267 31.9001C33.8722 32.0296 33.8772 32.0681 33.8767 32.2786C33.8767 32.4856 33.8712 32.5286 33.8292 32.6456C33.7708 32.8171 33.673 32.9726 33.5437 33.0996C33.2962 33.3516 32.9787 33.4906 32.5197 33.5486C32.4397 33.5586 32.2077 33.5756 32.0032 33.5861C31.4882 33.6131 31.1497 33.6681 30.8452 33.7751C30.8178 33.7874 30.7883 33.7945 30.7582 33.7961C30.7462 33.7836 30.9532 33.6601 31.1247 33.5776C31.3662 33.4611 31.6062 33.3976 32.1447 33.3081C32.4107 33.2636 32.6857 33.2101 32.7552 33.1886C33.4142 32.9866 33.7532 32.4656 33.6447 31.8201Z" fill="white"/>
<path d="M34.2643 32.9221C34.0843 32.5356 34.0433 32.1621 34.1418 31.8141C34.1523 31.7771 34.1693 31.7466 34.1793 31.7466C34.2131 31.7588 34.2449 31.776 34.2738 31.7976C34.3568 31.8536 34.5228 31.9476 34.9653 32.1886C35.5178 32.4901 35.8328 32.7236 36.0473 32.9896C36.2348 33.2231 36.3508 33.4891 36.4068 33.8131C36.4383 33.9966 36.4198 34.4381 36.3728 34.6231C36.2243 35.2061 35.8788 35.6641 35.3868 35.9311C35.3403 35.9579 35.2922 35.9818 35.2428 36.0026C35.2358 36.0026 35.2618 35.9361 35.3013 35.8541C35.4663 35.5081 35.4858 35.1711 35.3603 34.7961C35.2838 34.5666 35.1273 34.2861 34.8118 33.8131C34.4448 33.2631 34.3548 33.1161 34.2643 32.9221ZM29.1807 35.0076C29.6832 34.5836 30.3078 34.2826 30.8773 34.1901C31.1223 34.1501 31.5313 34.1661 31.7583 34.2241C32.1223 34.3171 32.4483 34.5261 32.6178 34.7746C32.7828 35.0176 32.8543 35.2296 32.9278 35.7006C32.9578 35.8866 32.9893 36.0731 32.9988 36.1156C33.0538 36.3596 33.1623 36.5551 33.2963 36.6531C33.5088 36.8086 33.8753 36.8181 34.2353 36.6781C34.2729 36.6608 34.3125 36.6484 34.3533 36.6411C34.3663 36.6541 34.1853 36.7756 34.0573 36.8396C33.9062 36.9204 33.737 36.9614 33.5658 36.9586C33.2358 36.9586 32.9618 36.7911 32.7333 36.4486C32.6883 36.3811 32.5873 36.1796 32.5083 36.0001C32.2673 35.4501 32.1483 35.2821 31.8683 35.0986C31.6238 34.9386 31.3093 34.9101 31.0728 35.0261C30.7618 35.1786 30.6753 35.5761 30.8978 35.8276C30.9863 35.9276 31.1513 36.0141 31.2863 36.0306C31.3451 36.0384 31.405 36.0335 31.4618 36.0161C31.5187 35.9988 31.5711 35.9695 31.6156 35.9301C31.6601 35.8908 31.6957 35.8423 31.7198 35.7881C31.744 35.7338 31.7563 35.675 31.7558 35.6156C31.7558 35.4496 31.6918 35.3556 31.5318 35.2831C31.3133 35.1846 31.0783 35.2996 31.0793 35.5051C31.0798 35.5926 31.1178 35.6476 31.2058 35.6876C31.2623 35.7126 31.2633 35.7151 31.2173 35.7056C31.0168 35.6636 30.9698 35.4221 31.1313 35.2616C31.3248 35.0686 31.7253 35.1536 31.8628 35.4166C31.9208 35.5271 31.9273 35.7476 31.8768 35.8806C31.7643 36.1781 31.4353 36.3341 31.1018 36.2491C30.8748 36.1911 30.7823 36.1286 30.5088 35.8466C30.0333 35.3566 29.8488 35.2616 29.1628 35.1546L29.0312 35.1341L29.1813 35.0076H29.1807Z" fill="white"/>
<path fill-rule="evenodd" clip-rule="evenodd" d="M26.832 25.539L26.88 25.5975C28.734 27.8675 29.692 29.0455 29.753 29.1295C29.853 29.2685 29.8155 29.393 29.6435 29.491C29.548 29.5455 29.351 29.6005 29.253 29.6005C29.1415 29.6005 29.016 29.547 28.9245 29.4605C28.86 29.399 28.5995 29.01 27.998 28.0765C27.7164 27.6353 27.431 27.1965 27.142 26.76C27.1175 26.737 27.118 26.7375 27.951 28.228C28.474 29.164 28.651 29.4945 28.651 29.539C28.651 29.629 28.626 29.676 28.515 29.8C28.33 30.0065 28.2475 30.2385 28.1875 30.7185C28.1205 31.257 27.9325 31.637 27.4105 32.2875C27.1055 32.6685 27.0555 32.7385 26.978 32.892C26.881 33.085 26.8545 33.1935 26.8435 33.4375C26.832 33.6955 26.8545 33.8625 26.9335 34.109C27.0025 34.325 27.0745 34.468 27.2585 34.753C27.4175 34.9995 27.509 35.1825 27.509 35.254C27.509 35.311 27.52 35.311 27.7665 35.2555C28.356 35.1225 28.8345 34.888 29.104 34.601C29.2705 34.4235 29.3095 34.3255 29.311 34.082C29.3115 33.923 29.306 33.8895 29.263 33.798C29.193 33.649 29.0655 33.525 28.7845 33.333C28.416 33.081 28.259 32.878 28.2155 32.5995C28.1795 32.371 28.221 32.2095 28.425 31.7825C28.6355 31.3405 28.688 31.1525 28.7235 30.707C28.746 30.419 28.7775 30.3055 28.8605 30.2145C28.9465 30.1195 29.0245 30.087 29.238 30.058C29.586 30.0105 29.8075 29.9205 29.9895 29.753C30.1475 29.607 30.2135 29.4665 30.2235 29.2555L30.2315 29.0955L30.143 28.9925C30.016 28.8445 28.9655 27.6855 26.991 25.5145L26.938 25.457L26.832 25.5395V25.539ZM27.689 33.73C27.7239 33.6683 27.7343 33.5957 27.7182 33.5266C27.7021 33.4575 27.6606 33.397 27.602 33.357C27.488 33.281 27.3105 33.317 27.3105 33.416C27.3105 33.446 27.327 33.468 27.3645 33.4875C27.428 33.52 27.4325 33.557 27.383 33.6315C27.3325 33.7075 27.3365 33.7745 27.3945 33.82C27.4875 33.893 27.619 33.8525 27.689 33.73ZM30.451 30.142C30.2875 30.192 30.129 30.3655 30.0795 30.547C30.0495 30.6575 30.0665 30.852 30.1115 30.912C30.184 31.009 30.2545 31.0345 30.4445 31.033C30.8165 31.0305 31.1395 30.871 31.1775 30.6715C31.2085 30.508 31.066 30.2815 30.8705 30.1815C30.7695 30.1305 30.555 30.11 30.451 30.142ZM30.886 30.482C30.9435 30.4005 30.918 30.312 30.821 30.253C30.635 30.1395 30.354 30.233 30.354 30.409C30.354 30.496 30.5005 30.5915 30.6345 30.5915C30.7245 30.5915 30.8465 30.538 30.886 30.482Z" fill="white"/>
</svg>
