<svg width="41" height="42" viewBox="0 0 41 42" fill="none" xmlns="http://www.w3.org/2000/svg">
<path d="M17.4541 1.09131C26.8176 1.09131 34.408 8.68187 34.4082 18.0454C34.4082 27.4091 26.8177 35.0005 17.4541 35.0005C8.09059 35.0004 0.5 27.4091 0.5 18.0454C0.500236 8.68195 8.09074 1.09144 17.4541 1.09131Z" stroke="#A5B4FC"/>
<path d="M17.5 35.5913C27.165 35.5913 35 27.7563 35 18.0913C35 8.42632 27.165 0.591309 17.5 0.591309C7.83502 0.591309 0 8.42632 0 18.0913C0 27.7563 7.83502 35.5913 17.5 35.5913Z" fill="#3E73C4"/>
<path d="M21.8994 20.4142C21.8994 18.0911 20.4994 17.2948 17.6994 16.9623C15.7001 16.6966 15.3009 16.1661 15.3009 15.2364C15.3009 14.3067 15.968 13.7095 17.3002 13.7095C18.5001 13.7095 19.1673 14.1077 19.4998 15.1041C19.5344 15.2004 19.5977 15.2838 19.6812 15.3431C19.7647 15.4023 19.8644 15.4346 19.9668 15.4355H21.0332C21.0948 15.4371 21.1561 15.4262 21.2133 15.4035C21.2706 15.3807 21.3226 15.3466 21.3663 15.3031C21.41 15.2597 21.4444 15.2078 21.4674 15.1506C21.4904 15.0935 21.5016 15.0322 21.5002 14.9706V14.905C21.3699 14.1841 21.0051 13.5264 20.4626 13.0342C19.9201 12.5419 19.2302 12.2425 18.5001 12.1827V10.5902C18.5001 10.3244 18.2999 10.1253 17.9674 10.0586H16.9666C16.7009 10.0586 16.5007 10.2577 16.434 10.5902V12.117C14.4335 12.3817 13.168 13.7095 13.168 15.3698C13.168 17.5595 14.5002 18.4225 17.3002 18.755C19.1673 19.0864 19.7666 19.4856 19.7666 20.5477C19.7666 21.6086 18.8337 22.3392 17.5671 22.3392C15.8335 22.3392 15.2341 21.6097 15.034 20.6133C14.9684 20.3486 14.7671 20.2152 14.5669 20.2152H13.4338C13.3723 20.2137 13.3111 20.2247 13.254 20.2475C13.1969 20.2703 13.145 20.3045 13.1014 20.3479C13.0579 20.3914 13.0236 20.4432 13.0006 20.5003C12.9777 20.5574 12.9665 20.6185 12.9679 20.68V20.7456C13.2337 22.4059 14.3012 23.6003 16.5007 23.9328V25.5264C16.5007 25.7911 16.7009 25.9913 17.0334 26.0569H18.0341C18.2999 26.0569 18.5001 25.8578 18.5668 25.5264V23.9317C20.5673 23.6003 21.8994 22.2058 21.8994 20.4131V20.4142Z" fill="white"/>
<path d="M14.1008 27.3849C8.90116 25.5255 6.2346 19.7505 8.16835 14.6394C9.16803 11.8504 11.3676 9.7274 14.1008 8.731C14.3677 8.59865 14.5001 8.39959 14.5001 8.06709V7.1374C14.5001 6.87271 14.3677 6.67365 14.1008 6.60693C14.0341 6.60693 13.9007 6.60693 13.834 6.67256C12.3338 7.14104 10.9411 7.90164 9.73615 8.91056C8.53116 9.91948 7.53764 11.1568 6.8128 12.5513C6.08797 13.9457 5.64613 15.4698 5.51273 17.0358C5.37933 18.6017 5.55701 20.1785 6.03553 21.6755C7.23428 25.3943 10.101 28.249 13.834 29.4433C14.1008 29.5757 14.3677 29.4433 14.4333 29.1776C14.5001 29.1119 14.5001 29.0441 14.5001 28.9118V27.9821C14.5001 27.783 14.301 27.5183 14.1008 27.3849ZM21.1665 6.67365C20.8996 6.54021 20.6327 6.67365 20.5671 6.93834C20.5004 7.00506 20.5004 7.07178 20.5004 7.20412V8.13381C20.5004 8.39959 20.6994 8.66428 20.8996 8.79771C26.0993 10.6571 28.7658 16.4321 26.8321 21.5432C25.8324 24.3322 23.6329 26.4552 20.8996 27.4516C20.6327 27.584 20.5004 27.783 20.5004 28.1155V29.0452C20.5004 29.3099 20.6327 29.509 20.8996 29.5757C20.9663 29.5757 21.0998 29.5757 21.1665 29.5101C22.6666 29.0416 24.0593 28.281 25.2643 27.2721C26.4693 26.2631 27.4628 25.0258 28.1876 23.6313C28.9125 22.2369 29.3543 20.7128 29.4877 19.1469C29.6211 17.5809 29.4434 16.0041 28.9649 14.5071C27.7662 10.7227 24.8327 7.86803 21.1665 6.67365Z" fill="white"/>
<circle cx="32" cy="32.5913" r="8" fill="white" stroke="#A5B4FC"/>
<g clip-path="url(#clip0_43_7483)">
<path d="M34.4934 30.9528C34.3183 30.8527 34.0931 30.8527 33.893 30.9528L32.492 31.7784L31.5413 32.3038L30.1654 33.1294C29.9902 33.2294 29.7651 33.2294 29.5649 33.1294L28.4892 32.4789C28.314 32.3788 28.189 32.1787 28.189 31.9535V30.7026C28.189 30.5025 28.289 30.3023 28.4892 30.1773L29.5649 29.5518C29.7401 29.4517 29.9652 29.4517 30.1654 29.5518L31.2411 30.2023C31.4162 30.3023 31.5413 30.5025 31.5413 30.7276V31.5532L32.492 31.0028V30.1522C32.492 29.9521 32.3919 29.752 32.1918 29.6269L30.1904 28.451C30.0153 28.351 29.7901 28.351 29.59 28.451L27.5385 29.6519C27.3384 29.752 27.2383 29.9521 27.2383 30.1522V32.5039C27.2383 32.704 27.3384 32.9042 27.5385 33.0293L29.5649 34.2051C29.7401 34.3052 29.9652 34.3052 30.1654 34.2051L31.5413 33.4045L32.492 32.8542L33.868 32.0536C34.0431 31.9535 34.2683 31.9535 34.4684 32.0536L35.5442 32.679C35.7193 32.7791 35.8444 32.9792 35.8444 33.2044V34.4553C35.8444 34.6554 35.7443 34.8556 35.5442 34.9807L34.4934 35.6061C34.3183 35.7062 34.0931 35.7062 33.893 35.6061L32.8172 34.9807C32.6421 34.8806 32.517 34.6805 32.517 34.4553V33.6547L31.5664 34.2051V35.0307C31.5664 35.2308 31.6664 35.431 31.8666 35.5561L33.893 36.7319C34.0681 36.832 34.2933 36.832 34.4934 36.7319L36.5199 35.5561C36.695 35.456 36.8201 35.2559 36.8201 35.0307V32.654C36.8201 32.4539 36.72 32.2537 36.5199 32.1286L34.4934 30.9528Z" fill="#8247E5"/>
</g>
<defs>
<clipPath id="clip0_43_7483">
<rect width="9.60682" height="8.38095" fill="white" transform="translate(27.2383 28.4009)"/>
</clipPath>
</defs>
</svg>
