<svg width="65" height="65" viewBox="0 0 65 65" fill="none" xmlns="http://www.w3.org/2000/svg">
<g clip-path="url(#clip0_43_7202)">
<path d="M56.8848 19.6633V13.5833C56.8848 10.65 54.4848 8.25 51.5514 8.25H14.2181C11.2581 8.25 8.88477 10.65 8.88477 13.5833V50.9167C8.88477 53.85 11.2581 56.25 14.2181 56.25H51.5514C54.4848 56.25 56.8848 53.85 56.8848 50.9167V44.8367C58.4581 43.9033 59.5514 42.2233 59.5514 40.25V24.25C59.5514 22.2767 58.4581 20.5967 56.8848 19.6633ZM54.2181 24.25V40.25H35.5514V24.25H54.2181ZM14.2181 50.9167V13.5833H51.5514V18.9167H35.5514C32.6181 18.9167 30.2181 21.3167 30.2181 24.25V40.25C30.2181 43.1833 32.6181 45.5833 35.5514 45.5833H51.5514V50.9167H14.2181Z" fill="#4338CA"/>
<path d="M43.5518 36.25C45.7609 36.25 47.5518 34.4591 47.5518 32.25C47.5518 30.0409 45.7609 28.25 43.5518 28.25C41.3426 28.25 39.5518 30.0409 39.5518 32.25C39.5518 34.4591 41.3426 36.25 43.5518 36.25Z" fill="#4338CA"/>
</g>
<defs>
<clipPath id="clip0_43_7202">
<rect width="64" height="64" fill="white" transform="translate(0.884766 0.25)"/>
</clipPath>
</defs>
</svg>
