<svg width="32" height="32" viewBox="0 0 32 32" fill="none" xmlns="http://www.w3.org/2000/svg">
<g clip-path="url(#clip0_43_7081)">
<path d="M16 0C11.7565 0 7.68687 1.68571 4.68629 4.68629C1.68571 7.68687 0 11.7565 0 16C0 20.2435 1.68571 24.3131 4.68629 27.3137C7.68687 30.3143 11.7565 32 16 32C20.2435 32 24.3131 30.3143 27.3137 27.3137C30.3143 24.3131 32 20.2435 32 16C32 11.7565 30.3143 7.68687 27.3137 4.68629C24.3131 1.68571 20.2435 0 16 0ZM12.8133 11.6067C13.4293 11.6067 13.9822 11.7111 14.472 11.92C14.96 12.12 15.3436 12.4236 15.6227 12.8307C15.9036 13.2307 16.044 13.7107 16.044 14.2707C16.044 14.4396 16.024 14.6524 15.984 14.9093C15.8676 15.6072 15.7235 16.3002 15.552 16.9867C15.272 18.0836 14.7876 18.904 14.0987 19.448C13.4107 19.984 12.4898 20.2524 11.336 20.2533C10.3831 20.2533 9.60267 20.0293 8.99467 19.5813C8.39467 19.1244 8.09422 18.4756 8.09333 17.6347C8.09333 17.4596 8.11333 17.2436 8.15333 16.9867C8.25733 16.4107 8.40578 15.7182 8.59867 14.9093C9.14267 12.7076 10.5484 11.6067 12.8133 11.6067ZM18.372 11.7267H21.568C22.4569 11.7267 23.1693 11.9107 23.7053 12.2787C24.2502 12.6467 24.5222 13.1787 24.5213 13.8747C24.5204 14.0747 24.496 14.2836 24.448 14.5013C24.2489 15.4213 23.8453 16.1013 23.2373 16.5413C22.6364 16.9822 21.8116 17.2027 20.7627 17.2027H19.14L18.588 19.8333C18.5725 19.9196 18.5248 19.9968 18.4547 20.0493C18.3911 20.1026 18.311 20.1323 18.228 20.1333H16.596C16.5071 20.1333 16.4387 20.1053 16.3907 20.0493C16.3512 19.9847 16.3383 19.9073 16.3547 19.8333L18.0133 12.0267C18.0279 11.941 18.074 11.8639 18.1427 11.8107C18.2075 11.7577 18.2883 11.7282 18.372 11.7267ZM12.656 13.336C12.2089 13.336 11.8253 13.468 11.5053 13.732C11.1933 13.9969 10.9693 14.4013 10.8333 14.9453C10.6893 15.4813 10.5453 16.1378 10.4013 16.9147C10.3689 17.0812 10.3523 17.2504 10.352 17.42C10.352 18.156 10.7364 18.524 11.5053 18.524C11.9533 18.524 12.3333 18.392 12.6453 18.128C12.9653 17.864 13.1938 17.4596 13.3307 16.9147C13.5138 16.1618 13.6533 15.5053 13.7493 14.9453C13.7831 14.7745 13.8001 14.6008 13.8 14.4267C13.8 13.6987 13.4187 13.3351 12.656 13.336ZM19.9227 13.396L19.4667 15.544H20.8467C21.1836 15.544 21.476 15.452 21.724 15.268C21.9848 15.0762 22.1641 14.7936 22.2267 14.476C22.2507 14.3409 22.2627 14.2209 22.2627 14.116C22.2627 13.8849 22.1951 13.7089 22.06 13.588C21.924 13.46 21.6911 13.396 21.3613 13.396H19.9227Z" fill="#A5B4FC"/>
</g>
<defs>
<clipPath id="clip0_43_7081">
<rect width="32" height="32" fill="white"/>
</clipPath>
</defs>
</svg>
